<svg width="20" height="20" viewBox="0 0 20 20" fill="none" xmlns="http://www.w3.org/2000/svg">
<g clip-path="url(#clip0_1046_2496)">
<path d="M19 10C19 14.9706 14.9706 19 10 19M19 10C19 5.02944 14.9706 1 10 1M19 10H1M10 19C5.02944 19 1 14.9706 1 10M10 19C12.2512 16.5355 13.5305 13.3372 13.6 10C13.5305 6.66283 12.2512 3.46452 10 1M10 19C7.74885 16.5355 6.46952 13.3372 6.4 10C6.46952 6.66283 7.74885 3.46452 10 1M1 10C1 5.02944 5.02944 1 10 1" stroke="#F6921E" stroke-linecap="round" stroke-linejoin="round"/>
</g>
<defs>
<clipPath id="clip0_1046_2496">
<rect width="20" height="20" fill="white"/>
</clipPath>
</defs>
</svg>
