<svg width="31" height="31" viewBox="0 0 31 31" fill="none" xmlns="http://www.w3.org/2000/svg">
<rect width="31" height="31" rx="15.5" fill="#F6921E"/>
<path d="M21.9584 22.7656V21.151C21.9584 20.2946 21.6181 19.4733 21.0126 18.8677C20.407 18.2621 19.5856 17.9219 18.7292 17.9219H12.2709C11.4144 17.9219 10.5931 18.2621 9.98749 18.8677C9.3819 19.4733 9.04169 20.2946 9.04169 21.151V22.7656M18.7292 11.4635C18.7292 13.247 17.2834 14.6927 15.5 14.6927C13.7166 14.6927 12.2709 13.247 12.2709 11.4635C12.2709 9.68012 13.7166 8.23438 15.5 8.23438C17.2834 8.23438 18.7292 9.68012 18.7292 11.4635Z" stroke="white" stroke-width="1.66667" stroke-linecap="round" stroke-linejoin="round"/>
</svg>
