<svg width="20" height="24" viewBox="0 0 20 24" fill="none" xmlns="http://www.w3.org/2000/svg">
<mask id="path-1-inside-1_1074_3161" fill="white">
<path d="M15.2311 20.0771C15.2351 20.3771 15.1912 20.685 15.2421 20.978C15.2601 20.6824 15.2351 20.3771 15.2311 20.0771Z"/>
<path d="M19.9928 11.986H19.2839C19.2839 11.3123 19.2594 10.6469 19.2936 9.9846C19.3129 9.61354 19.1963 9.43985 18.8324 9.37669C18.5093 9.32186 18.195 9.22317 17.8803 9.12887C16.6598 8.76043 16.1355 7.49855 16.7352 6.37044C16.9145 6.03358 17.1048 5.6998 17.3099 5.37654C17.4331 5.18355 17.4318 5.05197 17.2551 4.88485C16.7979 4.4537 16.3508 4.00851 15.9212 3.55016C15.7322 3.34883 15.5806 3.3462 15.3614 3.49138C15.0646 3.687 14.7525 3.85982 14.4404 4.02956C13.2826 4.65502 12.0048 4.11597 11.6396 2.85101C11.5383 2.49661 11.4331 2.14046 11.3551 1.78035C11.3047 1.54614 11.1907 1.47903 10.9584 1.48473C10.3153 1.49964 9.67218 1.49569 9.0304 1.48605C8.81691 1.4821 8.70732 1.54614 8.65954 1.76544C8.57888 2.13914 8.47191 2.50757 8.36407 2.87425C7.9919 4.13527 6.70177 4.65678 5.55104 4.01596C5.44276 3.95719 5.33624 3.89534 5.22927 3.83394C4.6328 3.49445 4.08688 3.57209 3.59152 4.06684C3.31929 4.33659 3.06065 4.62125 2.77307 4.87477C2.57756 5.04714 2.57888 5.19101 2.71433 5.39759C2.90853 5.69453 3.07687 6.00814 3.2509 6.31912C3.89005 7.46477 3.36707 8.75605 2.10719 9.13501C1.7543 9.24159 1.39834 9.34598 1.03844 9.41967C0.788125 9.47011 0.700451 9.58415 0.71141 9.83723C0.735959 10.3697 0.732014 10.9035 0.737274 11.4364C0.739904 11.6224 0.738589 11.8101 0.738589 11.9921H0.0135215C0.0135215 11.1325 -6.79996e-05 10.3013 0.0205355 9.47186C0.0301797 9.12404 0.248927 8.89816 0.593926 8.80649C1.01652 8.69421 1.43955 8.58455 1.85951 8.46306C2.73932 8.20822 3.04969 7.42925 2.59816 6.62571C2.39695 6.26824 2.18346 5.91779 1.98532 5.55944C1.76219 5.15416 1.79901 4.85284 2.12472 4.51905C2.65954 3.96991 3.20005 3.42778 3.74889 2.89136C4.08951 2.55889 4.37138 2.52468 4.7874 2.75057C5.17185 2.96022 5.54271 3.19269 5.92848 3.39927C6.67415 3.8006 7.44042 3.48261 7.68241 2.67074C7.80427 2.26414 7.90115 1.85053 8.01645 1.44262C8.15322 0.951815 8.36802 0.77944 8.86207 0.776809C9.62834 0.769791 10.3942 0.769791 11.1591 0.776809C11.6313 0.77944 11.857 0.95357 11.9912 1.4106C12.1143 1.83079 12.2099 2.258 12.3362 2.67688C12.5825 3.48875 13.3431 3.79929 14.0918 3.39708C14.4653 3.19576 14.8266 2.9725 15.1974 2.76723C15.638 2.52205 15.9199 2.551 16.2714 2.89443C16.8203 3.43129 17.3608 3.97342 17.8956 4.52212C18.2239 4.85766 18.2555 5.14758 18.024 5.56251C17.8119 5.94454 17.5809 6.31692 17.3726 6.70159C16.9812 7.42837 17.2893 8.18848 18.0771 8.4363C18.5203 8.57446 18.9731 8.68412 19.4207 8.80605C19.7451 8.89377 19.9748 9.10299 19.9844 9.43327C20.009 10.2754 19.9928 11.118 19.9928 11.986Z"/>
<path d="M15.2421 20.978C15.1969 21.6859 15.1957 21.7021 14.756 22.085C14.7253 22.1118 14.4491 22.3013 14.3803 22.3399C14.2619 22.4065 14.1326 22.4508 13.9726 22.5245C13.8836 22.3109 13.6679 21.8995 13.6885 21.8925C14.3329 21.7008 14.553 21.2227 14.5324 20.5793C14.4802 18.9393 13.6732 17.8796 12.0709 17.5279C11.9381 17.4989 11.7755 17.5362 11.6427 17.588C10.5467 18.0068 9.45736 17.9985 8.3588 17.588C8.19748 17.5279 7.97435 17.5138 7.81961 17.577C7.37904 17.7551 6.93146 17.941 6.53737 18.2024C5.83115 18.6704 5.473 19.3578 5.48527 20.2205C5.48659 20.2889 5.49053 20.3574 5.48527 20.4245C5.42916 21.0802 5.41996 21.5868 6.32695 21.8346C6.21341 22.1109 6.16256 22.2324 6.05866 22.4846C5.66238 22.3298 5.31869 22.1741 4.99956 21.9552C4.88602 21.8785 4.79571 21.6894 4.79002 21.5486C4.7681 21.0026 4.76547 20.4547 4.79265 19.9086C4.84174 18.9231 5.32614 18.166 6.11697 17.6143C6.46021 17.3735 6.85168 17.1993 7.23219 17.0147C7.75341 16.7629 8.25009 16.7177 8.83049 16.9682C9.70636 17.3476 10.6173 17.2353 11.5041 16.8739C11.7106 16.7906 11.9859 16.7686 12.202 16.8248C12.9341 17.0164 13.6153 17.3314 14.19 17.8432C14.8564 18.4389 15.2202 19.1762 15.2311 20.0771C15.2351 20.3771 15.2601 20.6824 15.2421 20.978Z"/>
<path d="M10.0141 10.6074C8.26543 10.6513 7.08445 11.8465 7.09541 13.551C7.10769 15.3291 8.50609 16.43 10.022 16.4177C11.5804 16.4055 12.8447 15.287 12.9266 13.6032C13.0073 11.9356 11.6602 10.6087 10.0141 10.6074ZM9.91415 15.7054C8.77438 15.6532 7.75209 14.6282 7.81785 13.5874C7.91079 12.1062 8.80024 11.3228 10.1026 11.3325C11.2985 11.3395 12.2288 12.3728 12.177 13.5641C12.1235 14.8207 11.1293 15.7616 9.91415 15.7054Z"/>
<path d="M14.9015 9.9846C14.699 10.0149 14.4912 10.046 14.2707 10.0802C13.6302 7.77882 12.1897 6.46868 9.75675 6.51956C7.8358 6.55948 6.51104 7.7832 5.74784 10.0776C5.54531 10.0504 5.33445 10.0201 5.1008 9.98855C5.44141 7.5367 7.63328 5.73795 10.1526 5.78576C12.5018 5.83094 14.6906 7.74329 14.9015 9.9846Z"/>
<path d="M6.74253 15.4909C6.57814 15.6936 6.44268 15.8607 6.29363 16.0427C6.1608 15.966 6.04727 15.8975 5.9311 15.8317C5.5427 15.6129 5.17184 15.4826 4.69839 15.669C4.11273 15.8975 3.4863 15.8484 2.88134 15.676C1.90421 15.3966 0.79469 16.1743 0.723674 17.2024C0.710084 17.4064 0.735948 17.6143 0.71403 17.8187C0.686851 18.0774 0.79732 18.2156 1.02747 18.3196C1.80207 18.6674 2.61744 18.8095 3.45736 18.8455C3.5503 18.8494 3.64367 18.8617 3.76948 18.8726V19.5665C2.50259 19.542 1.28874 19.3696 0.212093 18.6604C0.106884 18.5906 0.023155 18.4152 0.0165794 18.2853C-0.00402407 17.8761 -0.0105997 17.4612 0.0275387 17.0546C0.134063 15.9375 1.3466 14.8216 2.45875 14.7984C2.58719 14.7971 2.7244 14.8532 2.84715 14.9023C3.40257 15.1256 3.99086 15.2102 4.52743 14.9668C5.10608 14.7054 5.58785 14.8615 6.08584 15.105C6.30328 15.2115 6.50449 15.3501 6.74253 15.4909Z"/>
<path d="M19.9805 18.3617C19.9766 18.4972 19.8025 18.6643 19.6644 18.7476C18.6286 19.3775 17.4765 19.5389 16.2425 19.5718V18.8889C16.701 18.8384 17.1469 18.7985 17.5901 18.7384C17.8184 18.7069 18.0565 18.67 18.2647 18.5783C18.6137 18.4248 19.1735 18.2814 19.2322 18.0349C19.3729 17.4463 19.4238 16.7441 18.878 16.2743C18.5347 15.98 18.1051 15.78 17.697 15.5695C17.6015 15.5203 17.4344 15.5778 17.3113 15.6199C16.6572 15.8388 15.9812 15.9155 15.3395 15.6747C14.8344 15.4857 14.4434 15.6199 14.034 15.8581C13.9397 15.9129 13.8477 15.9704 13.7232 16.044C13.5825 15.8756 13.4452 15.7116 13.2633 15.4966C13.9529 15.119 14.5289 14.5782 15.4061 14.9519C15.9628 15.1887 16.5498 15.1177 17.1315 14.9273C17.3818 14.8453 17.6992 14.8273 17.9469 14.9041C18.899 15.2023 19.7162 15.7076 19.9266 16.7713C20.0292 17.2862 20.0011 17.8318 19.9805 18.3617Z"/>
<path d="M16.2587 10.4513C14.9997 10.4267 14.0559 11.3368 14.0436 12.5843C14.0327 13.7795 14.9975 14.7611 16.1916 14.7707C17.3603 14.7791 18.3646 13.8124 18.3796 12.6667C18.3945 11.4702 17.441 10.4732 16.2587 10.4513ZM16.2285 14.0545C15.4771 14.0668 14.7959 13.3917 14.7823 12.6237C14.77 11.861 15.4389 11.1741 16.1982 11.1697C16.9548 11.1658 17.6378 11.8377 17.6444 12.5948C17.6514 13.3396 16.9684 14.0422 16.2285 14.0545Z"/>
<path d="M3.82253 10.45C2.6306 10.4403 1.63856 11.3974 1.62234 12.5759C1.60437 13.7641 2.6021 14.7664 3.80631 14.769C4.97764 14.7729 5.94075 13.8229 5.95872 12.6483C5.97801 11.4013 5.06225 10.4596 3.82253 10.45ZM3.82253 14.0545C3.05494 14.0628 2.35179 13.3619 2.35837 12.5952C2.3667 11.8013 3.01636 11.1632 3.84708 11.1689C4.4231 11.1728 5.28801 11.7535 5.24417 12.6036C5.24943 13.3729 4.59012 14.0448 3.82253 14.0545Z"/>
<path d="M13.3155 20.5012C13.2773 21.2131 13.2541 21.9043 13.187 22.5916C13.176 22.7013 12.9805 22.8478 12.8464 22.8807C10.9539 23.3434 9.05623 23.3461 7.16553 22.8781C7.02043 22.8412 6.82491 22.6482 6.80957 22.5127C6.7425 21.8622 6.73022 21.2065 6.69603 20.503H7.40356C7.42548 20.971 7.45967 21.4324 7.468 21.8938C7.47195 22.1636 7.58286 22.2649 7.8472 22.3127C9.30303 22.5767 10.7536 22.5767 12.2077 22.3044C12.4676 22.2552 12.5417 22.1416 12.5457 21.8951C12.5509 21.435 12.5856 20.9736 12.6088 20.5017L13.3155 20.5012Z"/>
</mask>
<path d="M15.7412 21.0083C15.7605 20.6906 15.7344 20.3212 15.7311 20.0705L14.7312 20.0837C14.7358 20.433 14.7596 20.6741 14.743 20.9476L15.7412 21.0083ZM15.2311 20.0771L14.2312 20.0892L14.2312 20.0902L15.2311 20.0771ZM15.2421 20.978L16.2401 21.0416L16.2476 20.9236L16.2274 20.807L15.2421 20.978ZM19.9928 11.986V12.986H20.9928V11.986H19.9928ZM19.2839 11.986H18.2839V12.986H19.2839V11.986ZM19.2936 9.9846L18.2949 9.93269L18.2949 9.93304L19.2936 9.9846ZM18.8324 9.37669L19.0034 8.39141L18.9997 8.39078L18.8324 9.37669ZM17.8803 9.12887L17.5913 10.0862L17.5933 10.0868L17.8803 9.12887ZM16.7352 6.37044L15.8525 5.90058L15.8522 5.90105L16.7352 6.37044ZM17.3099 5.37654L16.467 4.83851L16.4656 4.84069L17.3099 5.37654ZM17.2551 4.88485L17.9423 4.15838L17.9412 4.15731L17.2551 4.88485ZM15.9212 3.55016L16.6508 2.8663L16.6504 2.86583L15.9212 3.55016ZM15.3614 3.49138L15.9117 4.32632L15.9136 4.32508L15.3614 3.49138ZM14.4404 4.02956L14.9157 4.90938L14.9181 4.90805L14.4404 4.02956ZM11.6396 2.85101L10.6781 3.12575L10.6788 3.12836L11.6396 2.85101ZM11.3551 1.78035L10.3775 1.99077L10.3778 1.99213L11.3551 1.78035ZM10.9584 1.48473L10.9815 2.48446L10.9829 2.48443L10.9584 1.48473ZM9.0304 1.48605L9.01191 2.48588L9.01537 2.48593L9.0304 1.48605ZM8.65954 1.76544L7.68246 1.55256L7.68205 1.55446L8.65954 1.76544ZM8.36407 2.87425L9.32317 3.15733L9.32345 3.1564L8.36407 2.87425ZM5.55104 4.01596L6.03759 3.14224L6.0281 3.13709L5.55104 4.01596ZM5.22927 3.83394L5.72715 2.96668L5.72392 2.96484L5.22927 3.83394ZM3.59152 4.06684L4.29538 4.77719L4.29819 4.77438L3.59152 4.06684ZM2.77307 4.87477L2.11178 4.12464L2.11175 4.12467L2.77307 4.87477ZM2.71433 5.39759L3.55124 4.85025L3.5506 4.84926L2.71433 5.39759ZM3.2509 6.31912L4.12419 5.83192L4.12354 5.83076L3.2509 6.31912ZM2.10719 9.13501L1.81914 8.17739L1.81806 8.17772L2.10719 9.13501ZM1.03844 9.41967L1.23598 10.4L1.23902 10.3993L1.03844 9.41967ZM0.71141 9.83723L-0.287657 9.88049L-0.287529 9.88328L0.71141 9.83723ZM0.737274 11.4364L-0.262686 11.4463L-0.262626 11.4506L0.737274 11.4364ZM0.738589 11.9921V12.9921H1.73859V11.9921H0.738589ZM0.0135215 11.9921H-0.986478V12.9921H0.0135215V11.9921ZM0.0205355 9.47186L-0.979084 9.44415L-0.979156 9.44703L0.0205355 9.47186ZM0.593926 8.80649L0.337131 7.84002L0.337126 7.84003L0.593926 8.80649ZM1.85951 8.46306L2.13741 9.42366L2.13772 9.42358L1.85951 8.46306ZM2.59816 6.62571L3.46996 6.13583L3.4696 6.13519L2.59816 6.62571ZM1.98532 5.55944L1.10931 6.04174L1.11019 6.04333L1.98532 5.55944ZM2.12472 4.51905L2.84043 5.21745L2.84111 5.21675L2.12472 4.51905ZM3.74889 2.89136L3.05039 2.17575L3.04992 2.17621L3.74889 2.89136ZM4.7874 2.75057L5.26617 1.87263L5.26457 1.87176L4.7874 2.75057ZM5.92848 3.39927L6.40241 2.51871L6.40057 2.51772L5.92848 3.39927ZM7.68241 2.67074L6.72451 2.38363L6.72407 2.3851L7.68241 2.67074ZM8.01645 1.44262L8.97875 1.71461L8.97974 1.71106L8.01645 1.44262ZM8.86207 0.776809L8.86739 1.7768L8.87122 1.77677L8.86207 0.776809ZM11.1591 0.776809L11.15 1.77677L11.1536 1.77679L11.1591 0.776809ZM11.9912 1.4106L12.9508 1.12928L12.9507 1.12898L11.9912 1.4106ZM12.3362 2.67688L11.3787 2.96546L11.3793 2.96726L12.3362 2.67688ZM14.0918 3.39708L14.5651 4.27802L14.5663 4.27734L14.0918 3.39708ZM15.1974 2.76723L15.6817 3.64216L15.6837 3.64103L15.1974 2.76723ZM16.2714 2.89443L16.9707 2.17956L16.9702 2.17909L16.2714 2.89443ZM17.8956 4.52212L17.1795 5.22011L17.1809 5.22152L17.8956 4.52212ZM18.024 5.56251L17.1507 5.07535L17.1498 5.07699L18.024 5.56251ZM17.3726 6.70159L16.4932 6.22554L16.4922 6.22737L17.3726 6.70159ZM18.0771 8.4363L17.777 9.39022L17.7795 9.39099L18.0771 8.4363ZM19.4207 8.80605L19.1578 9.77089L19.1597 9.77138L19.4207 8.80605ZM19.9844 9.43327L20.984 9.40413L20.984 9.40408L19.9844 9.43327ZM14.756 22.085L14.0992 21.3309L14.0988 21.3313L14.756 22.085ZM14.3803 22.3399L13.8911 21.4677L13.8895 21.4686L14.3803 22.3399ZM13.9726 22.5245L13.0495 22.9091L13.4485 23.8668L14.3909 23.4328L13.9726 22.5245ZM13.6885 21.8925L13.4034 20.934L13.3847 20.9396L13.3661 20.9459L13.6885 21.8925ZM14.5324 20.5793L13.5329 20.6111L13.5329 20.6113L14.5324 20.5793ZM12.0709 17.5279L12.2854 16.5511L12.2839 16.5508L12.0709 17.5279ZM11.6427 17.588L11.9997 18.5221L12.0057 18.5197L11.6427 17.588ZM8.3588 17.588L8.70887 16.6512L8.70786 16.6509L8.3588 17.588ZM7.81961 17.577L8.19435 18.5041L8.1975 18.5028L7.81961 17.577ZM6.53737 18.2024L7.08977 19.036L7.09014 19.0358L6.53737 18.2024ZM5.48527 20.2205L4.48536 20.2347L4.48546 20.2397L5.48527 20.2205ZM5.48527 20.4245L6.48166 20.5097L6.48222 20.5026L5.48527 20.4245ZM6.32695 21.8346L7.25191 22.2147L7.6819 21.1682L6.59052 20.87L6.32695 21.8346ZM6.05866 22.4846L5.69475 23.4161L6.6093 23.7734L6.98328 22.8655L6.05866 22.4846ZM4.99956 21.9552L5.56515 21.1305L5.55963 21.1268L4.99956 21.9552ZM4.79002 21.5486L3.79082 21.5887L3.79083 21.5891L4.79002 21.5486ZM4.79265 19.9086L3.79388 19.8589L3.79388 19.8589L4.79265 19.9086ZM6.11697 17.6143L6.68918 18.4344L6.69127 18.4329L6.11697 17.6143ZM7.23219 17.0147L6.79724 16.1142L6.79559 16.115L7.23219 17.0147ZM8.83049 16.9682L9.22797 16.0506L9.22669 16.05L8.83049 16.9682ZM11.5041 16.8739L11.1298 15.9466L11.1267 15.9478L11.5041 16.8739ZM12.202 16.8248L12.4553 15.8574L12.4534 15.8569L12.202 16.8248ZM14.19 17.8432L14.8565 17.0977L14.8551 17.0965L14.19 17.8432ZM10.0141 10.6074L10.0149 9.60743L10.002 9.60742L9.98902 9.60775L10.0141 10.6074ZM7.09541 13.551L6.09543 13.5574L6.09544 13.5579L7.09541 13.551ZM10.022 16.4177L10.0141 15.4178L10.0139 15.4178L10.022 16.4177ZM12.9266 13.6032L13.9255 13.6518L13.9255 13.6515L12.9266 13.6032ZM9.91415 15.7054L9.9603 14.7065L9.95989 14.7065L9.91415 15.7054ZM7.81785 13.5874L8.81586 13.6504L8.81589 13.65L7.81785 13.5874ZM10.1026 11.3325L10.0952 12.3324L10.0968 12.3324L10.1026 11.3325ZM12.177 13.5641L11.178 13.5207L11.1779 13.5216L12.177 13.5641ZM14.9015 9.9846L15.0493 10.9736L15.9858 10.8337L15.8971 9.89094L14.9015 9.9846ZM14.2707 10.0802L13.3073 10.3483L13.5456 11.2047L14.424 11.0684L14.2707 10.0802ZM9.75675 6.51956L9.77752 7.51935L9.77766 7.51934L9.75675 6.51956ZM5.74784 10.0776L5.61476 11.0687L6.43538 11.1789L6.69672 10.3932L5.74784 10.0776ZM5.1008 9.98855L4.11031 9.85095L3.9722 10.8451L4.96686 10.9795L5.1008 9.98855ZM10.1526 5.78576L10.1718 4.78595L10.1716 4.78594L10.1526 5.78576ZM6.74253 15.4909L7.51912 16.1209L8.24959 15.2205L7.25162 14.6302L6.74253 15.4909ZM6.29363 16.0427L5.79329 16.9085L6.52901 17.3337L7.06734 16.6763L6.29363 16.0427ZM5.9311 15.8317L6.4239 14.9616L6.42203 14.9605L5.9311 15.8317ZM4.69839 15.669L5.06189 16.6006L5.06475 16.5995L4.69839 15.669ZM2.88134 15.676L2.60642 16.6375L2.60731 16.6378L2.88134 15.676ZM0.723674 17.2024L-0.273952 17.1335L-0.274114 17.1359L0.723674 17.2024ZM0.71403 17.8187L-0.280272 17.712L-0.2805 17.7142L0.71403 17.8187ZM1.02747 18.3196L0.61583 19.2309L0.617838 19.2318L1.02747 18.3196ZM3.45736 18.8455L3.41458 19.8445L3.41493 19.8446L3.45736 18.8455ZM3.76948 18.8726H4.76948V17.956L3.85631 17.8764L3.76948 18.8726ZM3.76948 19.5665L3.7501 20.5663L4.76948 20.5861V19.5665H3.76948ZM0.212093 18.6604L-0.340412 19.4939L-0.338021 19.4954L0.212093 18.6604ZM0.0165794 18.2853L-0.982156 18.3356L-0.98214 18.3359L0.0165794 18.2853ZM0.0275387 17.0546L-0.967947 16.9597L-0.968091 16.9612L0.0275387 17.0546ZM2.45875 14.7984L2.44851 13.7984L2.43785 13.7986L2.45875 14.7984ZM2.84715 14.9023L3.2201 13.9745L3.21872 13.9739L2.84715 14.9023ZM4.52743 14.9668L4.11573 14.0555L4.11428 14.0561L4.52743 14.9668ZM6.08584 15.105L6.52599 14.207L6.52501 14.2066L6.08584 15.105ZM19.9805 18.3617L18.9812 18.3228L18.9809 18.3326L19.9805 18.3617ZM19.6644 18.7476L19.1477 17.8915L19.1449 17.8932L19.6644 18.7476ZM16.2425 19.5718H15.2425V20.5988L16.2691 20.5714L16.2425 19.5718ZM16.2425 18.8889L16.1332 17.8949L15.2425 17.9928V18.8889H16.2425ZM17.5901 18.7384L17.7244 19.7294L17.727 19.729L17.5901 18.7384ZM18.2647 18.5783L17.862 17.663L17.8618 17.6631L18.2647 18.5783ZM19.2322 18.0349L18.2596 17.8024L18.2594 17.8031L19.2322 18.0349ZM18.878 16.2743L19.5303 15.5164L19.5289 15.5152L18.878 16.2743ZM17.697 15.5695L18.1555 14.6807L18.1542 14.6801L17.697 15.5695ZM17.3113 15.6199L17.6286 16.5682L17.6347 16.5661L17.3113 15.6199ZM15.3395 15.6747L15.6907 14.7385L15.69 14.7382L15.3395 15.6747ZM14.034 15.8581L13.5312 14.9937L13.5312 14.9937L14.034 15.8581ZM13.7232 16.044L12.9558 16.6852L13.5009 17.3376L14.2325 16.9046L13.7232 16.044ZM13.2633 15.4966L12.783 14.6196L11.7087 15.2079L12.5001 16.1427L13.2633 15.4966ZM15.4061 14.9519L15.0141 15.8719L15.0146 15.8721L15.4061 14.9519ZM17.1315 14.9273L17.4425 15.8777L17.4429 15.8776L17.1315 14.9273ZM17.9469 14.9041L18.2458 13.9498L18.2429 13.9489L17.9469 14.9041ZM19.9266 16.7713L18.9456 16.9653L18.9458 16.9666L19.9266 16.7713ZM16.2587 10.4513L16.2392 11.4511L16.2402 11.4511L16.2587 10.4513ZM14.0436 12.5843L13.0437 12.5744L13.0437 12.5751L14.0436 12.5843ZM16.1916 14.7707L16.1836 15.7707L16.1845 15.7707L16.1916 14.7707ZM18.3796 12.6667L19.3795 12.6797L19.3795 12.6792L18.3796 12.6667ZM16.2285 14.0545L16.2448 15.0544L16.2451 15.0544L16.2285 14.0545ZM14.7823 12.6237L13.7824 12.6398L13.7824 12.6414L14.7823 12.6237ZM16.1982 11.1697L16.193 10.1697L16.1924 10.1698L16.1982 11.1697ZM17.6444 12.5948L16.6444 12.6035L16.6444 12.6042L17.6444 12.5948ZM3.82253 10.45L3.81443 11.4499L3.81475 11.4499L3.82253 10.45ZM1.62234 12.5759L2.62223 12.5911L2.62225 12.5897L1.62234 12.5759ZM3.80631 14.769L3.80968 13.769L3.8085 13.769L3.80631 14.769ZM5.95872 12.6483L4.95884 12.6328L4.95884 12.633L5.95872 12.6483ZM3.82253 14.0545L3.83339 15.0544L3.8351 15.0544L3.82253 14.0545ZM2.35837 12.5952L1.35842 12.5847L1.3584 12.5866L2.35837 12.5952ZM3.84708 11.1689L3.84022 12.1688L3.84023 12.1688L3.84708 11.1689ZM5.24417 12.6036L4.2455 12.5521L4.244 12.5812L4.24419 12.6104L5.24417 12.6036ZM13.3155 20.5012L14.314 20.5547L14.3705 19.5006L13.3148 19.5012L13.3155 20.5012ZM13.187 22.5916L14.1821 22.6911L14.1823 22.6888L13.187 22.5916ZM12.8464 22.8807L13.0839 23.8521L13.0846 23.8519L12.8464 22.8807ZM7.16553 22.8781L6.91942 23.8473L6.92525 23.8488L7.16553 22.8781ZM6.80957 22.5127L5.81479 22.6153L5.81592 22.6252L6.80957 22.5127ZM6.69603 20.503V19.503H5.64625L5.69721 20.5515L6.69603 20.503ZM7.40356 20.503L8.40247 20.4562L8.35782 19.503H7.40356V20.503ZM7.468 21.8938L8.4679 21.8792L8.46784 21.8758L7.468 21.8938ZM7.8472 22.3127L8.02565 21.3287L8.02517 21.3287L7.8472 22.3127ZM12.2077 22.3044L12.3918 23.2873L12.3934 23.287L12.2077 22.3044ZM12.5457 21.8951L13.5456 21.9111L13.5456 21.9066L12.5457 21.8951ZM12.6088 20.5017L12.6082 19.5017L11.6568 19.5022L11.61 20.4525L12.6088 20.5017ZM14.2312 20.0902C14.2329 20.2162 14.225 20.2974 14.2194 20.503C14.2148 20.6728 14.2141 20.9026 14.2568 21.149L16.2274 20.807C16.2193 20.7603 16.215 20.6898 16.2187 20.5574C16.2213 20.4608 16.2333 20.238 16.231 20.0639L14.2312 20.0902ZM19.9928 10.986H19.2839V12.986H19.9928V10.986ZM20.2839 11.986C20.2839 11.2622 20.2598 10.6649 20.2922 10.0362L18.2949 9.93304C18.259 10.6289 18.2839 11.3624 18.2839 11.986H20.2839ZM20.2922 10.0365C20.306 9.77097 20.2899 9.34833 20.0108 8.97074C19.7185 8.57531 19.2998 8.44286 19.0034 8.39142L18.6614 10.362C18.7289 10.3737 18.5504 10.3596 18.4025 10.1596C18.2679 9.97744 18.3004 9.82717 18.2949 9.93269L20.2922 10.0365ZM18.9997 8.39078C18.7514 8.34864 18.5053 8.2722 18.1673 8.17094L17.5933 10.0868C17.8848 10.1741 18.2673 10.2951 18.6651 10.3626L18.9997 8.39078ZM18.1693 8.17154C17.5541 7.98582 17.3134 7.4132 17.6182 6.83982L15.8522 5.90105C14.9577 7.5839 15.7656 9.53505 17.5913 10.0862L18.1693 8.17154ZM17.618 6.84029C17.7884 6.52016 17.9658 6.20926 18.1543 5.91239L16.4656 4.84069C16.2437 5.19033 16.0407 5.54701 15.8525 5.90058L17.618 6.84029ZM18.1529 5.91457C18.2551 5.75436 18.4278 5.44049 18.391 5.03133C18.3526 4.6049 18.1114 4.31835 17.9423 4.15838L16.5679 5.61133C16.5669 5.61032 16.5586 5.60243 16.5462 5.58765C16.5338 5.57278 16.5153 5.54867 16.4954 5.51515C16.453 5.44354 16.4106 5.33955 16.399 5.21066C16.3762 4.95731 16.4879 4.80572 16.467 4.83851L18.1529 5.91457ZM17.9412 4.15731C17.4971 3.73852 17.0647 3.30789 16.6508 2.8663L15.1916 4.23401C15.6369 4.70912 16.0987 5.16888 16.5691 5.6124L17.9412 4.15731ZM16.6504 2.86583C16.4792 2.68346 16.1802 2.43265 15.7386 2.39453C15.3131 2.35781 14.9855 2.54088 14.8092 2.65768L15.9136 4.32508C15.9564 4.2967 15.8142 4.4085 15.5666 4.38713C15.3029 4.36436 15.1742 4.21553 15.192 4.23448L16.6504 2.86583ZM14.811 2.65645C14.5532 2.82636 14.2745 2.98142 13.9626 3.15107L14.9181 4.90805C15.2304 4.73822 15.5759 4.54764 15.9117 4.32632L14.811 2.65645ZM13.965 3.14974C13.6359 3.32755 13.3442 3.31743 13.1309 3.22758C12.9172 3.13758 12.7046 2.93491 12.6004 2.57366L10.6788 3.12836C10.9397 4.03206 11.5487 4.7314 12.3546 5.0708C13.1609 5.41035 14.087 5.35703 14.9157 4.90938L13.965 3.14974ZM12.6011 2.57627C12.4957 2.2075 12.4019 1.8891 12.3324 1.56858L10.3778 1.99213C10.4644 2.39181 10.5809 2.78571 10.6781 3.12575L12.6011 2.57627ZM12.3327 1.56994C12.2822 1.33539 12.1572 0.978147 11.804 0.727289C11.4733 0.49243 11.1186 0.480495 10.9338 0.48503L10.9829 2.48443C11.0304 2.48326 10.8489 2.50203 10.6459 2.35785C10.4204 2.19768 10.3775 1.9911 10.3775 1.99077L12.3327 1.56994ZM10.9352 0.484998C10.3107 0.499479 9.68218 0.495732 9.04544 0.486158L9.01537 2.48593C9.66218 2.49566 10.3198 2.49981 10.9815 2.48446L10.9352 0.484998ZM9.04889 0.486216C8.86732 0.482859 8.52329 0.498336 8.20131 0.728491C7.85858 0.973478 7.73325 1.31944 7.68246 1.55256L9.63662 1.97833C9.63361 1.99214 9.58697 2.19643 9.36435 2.35556C9.16248 2.49985 8.98 2.48528 9.01191 2.48587L9.04889 0.486216ZM7.68205 1.55446C7.61018 1.88742 7.51333 2.22277 7.4047 2.59211L9.32345 3.1564C9.4305 2.79238 9.54758 2.39086 9.63703 1.97643L7.68205 1.55446ZM7.40498 2.59118C7.30002 2.9468 7.088 3.14473 6.87385 3.23154C6.65905 3.31861 6.36532 3.32481 6.03756 3.1423L5.06452 4.88963C5.88749 5.34792 6.81419 5.41378 7.62517 5.08505C8.43682 4.75605 9.05595 4.06272 9.32317 3.15732L7.40498 2.59118ZM6.0281 3.13709C5.93318 3.08557 5.84034 3.03167 5.72715 2.96669L4.7314 4.70119C4.83214 4.75902 4.95235 4.82881 5.07398 4.89483L6.0281 3.13709ZM5.72392 2.96484C5.28119 2.71286 4.77311 2.57051 4.23168 2.64751C3.6927 2.72416 3.24393 3.00066 2.88484 3.3593L4.29819 4.77438C4.43447 4.63827 4.50633 4.62858 4.51327 4.62759C4.51776 4.62695 4.58088 4.61553 4.73463 4.70303L5.72392 2.96484ZM2.88766 3.3565C2.56338 3.67782 2.37256 3.89474 2.11178 4.12464L3.43437 5.62489C3.74873 5.34776 4.07519 4.99535 4.29538 4.77718L2.88766 3.3565ZM2.11175 4.12467C1.92287 4.29119 1.66193 4.58877 1.62328 5.03753C1.58695 5.45931 1.77096 5.78257 1.87807 5.94592L3.5506 4.84926C3.52225 4.80603 3.63787 4.95406 3.6159 5.20917C3.60448 5.34173 3.55994 5.44976 3.51355 5.52499C3.49196 5.56001 3.47182 5.58502 3.4582 5.60043C3.44466 5.61575 3.43559 5.62381 3.4344 5.62487L2.11175 4.12467ZM1.87742 5.94493C2.04719 6.20452 2.19203 6.47471 2.37826 6.80748L4.12354 5.83076C3.96171 5.54158 3.76987 5.18455 3.55124 4.85025L1.87742 5.94493ZM2.37761 6.80632C2.70481 7.39282 2.46845 7.98209 1.81914 8.17739L2.39523 10.0926C4.26569 9.53001 5.07528 7.53672 4.12419 5.83192L2.37761 6.80632ZM1.81806 8.17772C1.46512 8.28432 1.14828 8.37644 0.837856 8.43999L1.23902 10.3993C1.6484 10.3155 2.04348 10.1989 2.39632 10.0923L1.81806 8.17772ZM0.840895 8.43938C0.61819 8.48425 0.254925 8.59583 -0.0115165 8.93738C-0.27741 9.27822 -0.297346 9.65667 -0.287653 9.88049L1.71047 9.79397C1.70921 9.76471 1.72763 9.9596 1.56541 10.1675C1.40264 10.3762 1.20837 10.4055 1.23598 10.4L0.840895 8.43938ZM-0.287529 9.88328C-0.264091 10.3917 -0.268165 10.8903 -0.262677 11.4463L1.73723 11.4265C1.73219 10.9167 1.73601 10.3478 1.71035 9.79117L-0.287529 9.88328ZM-0.262626 11.4506C-0.260129 11.6271 -0.261411 11.8007 -0.261411 11.9921H1.73859C1.73859 11.8195 1.73994 11.6177 1.73717 11.4223L-0.262626 11.4506ZM0.738589 10.9921H0.0135215V12.9921H0.738589V10.9921ZM1.01352 11.9921C1.01352 11.1105 1.00003 10.3098 1.02023 9.4967L-0.979156 9.44703C-1.00017 10.2928 -0.986478 11.1544 -0.986478 11.9921H1.01352ZM1.02015 9.49958C1.01972 9.51528 1.01621 9.54796 1.00013 9.59014C0.983786 9.63304 0.959053 9.67354 0.928921 9.70744C0.868656 9.77525 0.820908 9.78088 0.850727 9.77295L0.337126 7.84003C0.0219457 7.92377 -0.307676 8.08818 -0.565975 8.3788C-0.833446 8.67974 -0.968258 9.05385 -0.97908 9.44415L1.02015 9.49958ZM0.850722 9.77296C1.26514 9.66284 1.70377 9.54912 2.13741 9.42366L1.5816 7.50245C1.17532 7.61998 0.767899 7.72557 0.337131 7.84002L0.850722 9.77296ZM2.13772 9.42358C2.81217 9.22822 3.38881 8.78932 3.65626 8.1223C3.92264 7.45792 3.81157 6.74376 3.46996 6.13583L1.72637 7.11558C1.78179 7.2142 1.79855 7.28478 1.80281 7.324C1.80686 7.36121 1.80071 7.376 1.79992 7.37799C1.79921 7.37974 1.79458 7.39226 1.76956 7.41311C1.74288 7.43533 1.686 7.47221 1.5813 7.50254L2.13772 9.42358ZM3.4696 6.13519C3.22551 5.70155 3.07619 5.46573 2.86045 5.07555L1.11019 6.04333C1.29073 6.36984 1.5684 6.83493 1.72673 7.11622L3.4696 6.13519ZM2.86133 5.07714C2.83519 5.02967 2.83351 5.01527 2.83674 5.02806C2.84104 5.04509 2.84803 5.08677 2.84069 5.14266C2.83332 5.19874 2.81561 5.2381 2.80612 5.25499C2.79883 5.26799 2.80326 5.25554 2.84043 5.21745L1.40901 3.82065C1.15909 4.07677 0.917824 4.42461 0.857721 4.88221C0.797848 5.33806 0.940035 5.73428 1.10931 6.04174L2.86133 5.07714ZM2.84111 5.21675C3.37047 4.67321 3.90518 4.13692 4.44786 3.60651L3.04992 2.17621C2.49492 2.71865 1.9486 3.26661 1.40833 3.82135L2.84111 5.21675ZM4.44739 3.60697C4.49168 3.56374 4.50672 3.55741 4.49448 3.56444C4.47741 3.57425 4.43411 3.59458 4.37126 3.60291C4.30874 3.6112 4.26311 3.6028 4.24691 3.5986C4.2359 3.59575 4.25416 3.59893 4.31022 3.62938L5.26457 1.87176C4.96688 1.71012 4.57045 1.55902 4.10847 1.62025C3.64366 1.68186 3.29866 1.93342 3.05039 2.17575L4.44739 3.60697ZM4.30862 3.6285C4.48577 3.72511 4.66121 3.82774 4.85391 3.94005C5.04192 4.04962 5.24557 4.16792 5.45639 4.28082L6.40057 2.51772C6.22562 2.42404 6.05095 2.32281 5.86098 2.21209C5.6757 2.10411 5.47347 1.98568 5.26617 1.87263L4.30862 3.6285ZM5.45455 4.27984C6.0561 4.6036 6.74931 4.67449 7.37783 4.4135C8.00641 4.15247 8.44554 3.61131 8.64074 2.95637L6.72407 2.3851C6.67729 2.54204 6.61229 2.56581 6.61082 2.56642C6.6093 2.56705 6.54653 2.59628 6.40241 2.51871L5.45455 4.27984ZM8.6403 2.95785C8.75663 2.56975 8.88803 2.03558 8.97875 1.71461L7.05414 1.17064C6.91428 1.66549 6.85192 1.95854 6.72451 2.38363L8.6403 2.95785ZM8.97974 1.71106C9.00102 1.63471 9.01464 1.61089 9.01206 1.61555C9.00654 1.62554 8.98062 1.66751 8.92538 1.71117C8.8992 1.73187 8.8725 1.74806 8.84772 1.76001C8.82344 1.77171 8.80495 1.77745 8.79578 1.77987C8.7808 1.78381 8.79736 1.77717 8.86739 1.77679L8.85674 -0.223177C8.51093 -0.221335 8.07034 -0.162319 7.68517 0.142132C7.30766 0.440529 7.14366 0.849376 7.05315 1.17418L8.97974 1.71106ZM8.87122 1.77677C9.6314 1.7698 10.3911 1.76981 11.15 1.77677L11.1683 -0.223149C10.3972 -0.230223 9.62528 -0.230223 8.85291 -0.223149L8.87122 1.77677ZM11.1536 1.77679C11.2138 1.77713 11.2275 1.78309 11.2125 1.77911C11.1921 1.77368 11.146 1.75706 11.0949 1.71802C11.0441 1.67922 11.0175 1.64054 11.0089 1.62594C11.003 1.6159 11.0137 1.631 11.0316 1.69223L12.9507 1.12898C12.8545 0.801381 12.6803 0.412303 12.3089 0.128594C11.9347 -0.157224 11.5112 -0.221244 11.1647 -0.223176L11.1536 1.77679ZM11.0316 1.69192C11.0879 1.88429 11.1385 2.07999 11.1947 2.29601C11.2495 2.50641 11.3093 2.7353 11.3787 2.96546L13.2936 2.3883C13.2367 2.19958 13.1857 2.00543 13.1303 1.79246C13.0764 1.5851 13.0176 1.35711 12.9508 1.12928L11.0316 1.69192ZM11.3793 2.96726C11.5771 3.61913 12.0156 4.15918 12.6466 4.41763C13.2766 4.67572 13.9671 4.59925 14.5651 4.27802L13.6186 2.51614C13.5411 2.5578 13.4855 2.56921 13.4548 2.57173C13.425 2.57416 13.4104 2.56924 13.4047 2.56689C13.399 2.56457 13.3861 2.55827 13.3678 2.53698C13.3488 2.5149 13.3182 2.46932 13.2931 2.3865L11.3793 2.96726ZM14.5663 4.27734C14.7688 4.16819 14.965 4.05471 15.1484 3.94806C15.3358 3.83907 15.5078 3.73839 15.6817 3.64215L14.7132 1.89231C14.5162 2.00135 14.3222 2.11493 14.1429 2.21921C13.9595 2.32584 13.7884 2.42465 13.6174 2.51682L14.5663 4.27734ZM15.6837 3.64103C15.7505 3.60388 15.7767 3.59682 15.7724 3.59803C15.7627 3.60076 15.7183 3.61101 15.6534 3.60353C15.6226 3.59999 15.5943 3.59322 15.5699 3.5849C15.546 3.57673 15.5298 3.56841 15.522 3.56392C15.5089 3.55646 15.5248 3.56303 15.5727 3.60977L16.9702 2.17909C16.7184 1.93314 16.3642 1.67217 15.8822 1.61667C15.4101 1.5623 15.008 1.72824 14.7111 1.89343L15.6837 3.64103ZM15.5722 3.6093C16.1151 4.14033 16.65 4.67681 17.1795 5.22011L18.6117 3.82414C18.0716 3.27002 17.5255 2.72226 16.9707 2.17956L15.5722 3.6093ZM17.1809 5.22152C17.2203 5.26179 17.224 5.27376 17.2153 5.25846C17.2041 5.23845 17.1844 5.19404 17.1769 5.13196C17.1695 5.07062 17.1783 5.02665 17.1822 5.01191C17.1849 5.00188 17.1813 5.02056 17.1507 5.07535L18.8974 6.04967C19.0642 5.75057 19.2181 5.35455 19.1626 4.89313C19.1063 4.42535 18.8577 4.07555 18.6103 3.82272L17.1809 5.22152ZM17.1498 5.07699C17.0502 5.25635 16.9459 5.43394 16.8333 5.62687C16.723 5.81574 16.6058 6.0175 16.4932 6.22554L18.252 7.17764C18.3477 7.00102 18.4501 6.82425 18.5604 6.63526C18.6684 6.45032 18.7857 6.2507 18.8983 6.04804L17.1498 5.07699ZM16.4922 6.22737C16.1721 6.82165 16.1046 7.50511 16.3561 8.12465C16.6076 8.74433 17.1326 9.18748 17.777 9.39021L18.3772 7.48239C18.2339 7.4373 18.2109 7.37648 18.2092 7.37246C18.2075 7.3683 18.1817 7.30831 18.253 7.1758L16.4922 6.22737ZM17.7795 9.39099C18.2448 9.53604 18.7479 9.6592 19.1578 9.77089L19.6836 7.84121C19.1984 7.70903 18.7958 7.61289 18.3747 7.48161L17.7795 9.39099ZM19.1597 9.77138C19.1928 9.78033 19.1528 9.77775 19.0951 9.71692C19.0648 9.68496 19.0354 9.64247 19.0142 9.5913C18.9929 9.54008 18.9858 9.49446 18.9849 9.46245L20.984 9.40408C20.9574 8.49132 20.277 8.00169 19.6817 7.84072L19.1597 9.77138ZM18.9849 9.4624C19.0089 10.2854 18.9928 11.0921 18.9928 11.986H20.9928C20.9928 11.1439 21.0091 10.2654 20.984 9.40413L18.9849 9.4624ZM14.2441 20.9143C14.2321 21.1031 14.2253 21.2019 14.2166 21.2721C14.2087 21.3355 14.206 21.3097 14.2296 21.2553C14.2579 21.1901 14.2919 21.1551 14.2836 21.1639C14.2611 21.1878 14.2181 21.2274 14.0992 21.3309L15.4127 22.8392C15.5818 22.6919 15.8952 22.4412 16.0643 22.0515C16.2122 21.7106 16.2229 21.3102 16.2401 21.0416L14.2441 20.9143ZM14.0988 21.3313C14.1205 21.3124 14.1371 21.2998 14.1376 21.2994C14.1415 21.2964 14.1431 21.2953 14.1411 21.2967C14.1375 21.2994 14.1295 21.3052 14.1165 21.3143C14.0911 21.3323 14.0564 21.3563 14.0192 21.3817C13.982 21.4071 13.9453 21.4317 13.9158 21.451C13.901 21.4607 13.8899 21.4678 13.8826 21.4724C13.8725 21.4788 13.8775 21.4753 13.8911 21.4677L14.8694 23.2121C14.95 23.1669 15.0759 23.0819 15.1457 23.0343C15.1972 22.9992 15.3406 22.902 15.4132 22.8388L14.0988 21.3313ZM13.8895 21.4686C13.8806 21.4736 13.8607 21.4837 13.7999 21.5097C13.7499 21.531 13.6516 21.5714 13.5543 21.6162L14.3909 23.4328C14.4536 23.404 14.5 23.3854 14.5843 23.3495C14.6576 23.3182 14.7616 23.2728 14.8711 23.2112L13.8895 21.4686ZM14.8957 22.14C14.8382 22.002 14.7453 21.8118 14.6914 21.6991C14.659 21.6316 14.6388 21.5885 14.6283 21.5643C14.621 21.5476 14.6292 21.5646 14.6402 21.5976C14.6426 21.605 14.6657 21.6718 14.6782 21.7636C14.6832 21.8003 14.6998 21.9269 14.6687 22.086C14.639 22.2385 14.5047 22.6709 14.011 22.8391L13.3661 20.9459C12.8711 21.1145 12.736 21.5482 12.7058 21.7027C12.6744 21.8638 12.691 21.993 12.6965 22.0332C12.7099 22.1319 12.7356 22.2085 12.7422 22.2282C12.7613 22.2859 12.7837 22.3379 12.7951 22.364C12.822 22.4257 12.8574 22.5 12.8876 22.563C12.9586 22.7112 13.018 22.8334 13.0495 22.9091L14.8957 22.14ZM13.9736 22.851C14.4994 22.6946 14.9395 22.3875 15.2196 21.916C15.4845 21.4701 15.5457 20.9783 15.5319 20.5473L13.5329 20.6113C13.5397 20.8237 13.5012 20.8927 13.5001 20.8946C13.4998 20.895 13.5006 20.8937 13.5023 20.8919C13.5039 20.8901 13.5042 20.8902 13.5015 20.8922C13.4968 20.8957 13.4702 20.9141 13.4034 20.934L13.9736 22.851ZM15.5319 20.5475C15.5009 19.5723 15.2412 18.672 14.6657 17.9482C14.086 17.219 13.2626 16.7657 12.2854 16.5511L11.8565 18.5046C12.4816 18.6418 12.8628 18.8942 13.1002 19.1928C13.3419 19.4968 13.5118 19.9463 13.5329 20.6111L15.5319 20.5475ZM12.2839 16.5508C11.8597 16.4583 11.4704 16.5819 11.2796 16.6562L12.0057 18.5197C12.0229 18.513 12.0288 18.5128 12.0194 18.5143C12.0136 18.5153 11.9977 18.5176 11.9731 18.5177C11.9488 18.5179 11.9089 18.516 11.858 18.5049L12.2839 16.5508ZM11.2856 16.6539C10.4246 16.9829 9.58684 16.9793 8.70887 16.6512L8.00874 18.5247C9.32789 19.0177 10.6688 19.0307 11.9997 18.522L11.2856 16.6539ZM8.70786 16.6509C8.3801 16.5288 7.88875 16.4687 7.44171 16.6511L8.1975 18.5028C8.14826 18.5229 8.1108 18.5302 8.09152 18.533C8.07132 18.536 8.05879 18.5359 8.05396 18.5357C8.04879 18.5355 8.04495 18.5351 8.04088 18.5343C8.03718 18.5336 8.02681 18.5314 8.00975 18.5251L8.70786 16.6509ZM7.44486 16.6499C7.01261 16.8246 6.47458 17.0441 5.9846 17.3691L7.09014 19.0358C7.38835 18.838 7.74547 18.6856 8.19435 18.5041L7.44486 16.6499ZM5.98497 17.3689C4.98854 18.0292 4.46837 19.0395 4.48538 20.2347L6.48517 20.2063C6.47763 19.676 6.67376 19.3117 7.08977 19.036L5.98497 17.3689ZM4.48546 20.2397C4.48589 20.2621 4.48653 20.2843 4.48695 20.2995C4.48742 20.3165 4.4877 20.3277 4.48784 20.3375C4.48813 20.3574 4.48752 20.3567 4.48833 20.3463L6.48222 20.5026C6.49253 20.371 6.48539 20.217 6.48509 20.2013L4.48546 20.2397ZM4.48892 20.3392C4.46486 20.6203 4.40634 21.1711 4.62772 21.6809C4.89543 22.2972 5.43999 22.6289 6.06338 22.7992L6.59052 20.87C6.44266 20.8296 6.39599 20.7953 6.39765 20.7965C6.41069 20.8061 6.44223 20.8382 6.46217 20.8841C6.47654 20.9172 6.4675 20.9189 6.46486 20.8489C6.46202 20.7737 6.46751 20.6748 6.48163 20.5097L4.48892 20.3392ZM5.40198 21.4545C5.28751 21.7332 5.24081 21.8445 5.13405 22.1037L6.98328 22.8655C7.0843 22.6203 7.13931 22.4887 7.25191 22.2147L5.40198 21.4545ZM6.42258 21.5532C6.05102 21.408 5.79048 21.2851 5.56514 21.1305L4.43397 22.7799C4.8469 23.0631 5.27373 23.2516 5.69475 23.4161L6.42258 21.5532ZM5.55963 21.1268C5.63422 21.1772 5.67906 21.2274 5.70123 21.2552C5.72501 21.285 5.73913 21.3095 5.74755 21.3263C5.75619 21.3435 5.76411 21.3629 5.77086 21.3865C5.77713 21.4085 5.78683 21.4497 5.7892 21.5082L3.79083 21.5891C3.80071 21.8332 3.87537 22.0552 3.96114 22.2256C4.04327 22.3887 4.19174 22.6162 4.43949 22.7837L5.55963 21.1268ZM5.78921 21.5085C5.76822 20.9856 5.76602 20.4685 5.79141 19.9584L3.79388 19.8589C3.76491 20.441 3.76797 21.0195 3.79082 21.5887L5.78921 21.5085ZM5.79141 19.9584C5.82301 19.324 6.11518 18.8349 6.68918 18.4344L5.54476 16.7942C4.53711 17.4972 3.86048 18.5221 3.79388 19.8589L5.79141 19.9584ZM6.69127 18.4329C6.95054 18.251 7.24254 18.1212 7.66878 17.9143L6.79559 16.115C6.46082 16.2775 5.96989 16.4959 5.54266 16.7956L6.69127 18.4329ZM7.66713 17.9151C7.95733 17.775 8.14982 17.7636 8.4343 17.8864L9.22669 16.05C8.35035 15.6719 7.54949 15.7509 6.79724 16.1142L7.66713 17.9151ZM8.43301 17.8858C9.63893 18.4082 10.8449 18.2224 11.8815 17.7999L11.1267 15.9478C10.3897 16.2482 9.77379 16.287 9.22797 16.0506L8.43301 17.8858ZM11.8784 17.8012C11.8736 17.8031 11.8761 17.8017 11.8862 17.7995C11.8959 17.7973 11.9085 17.7954 11.9223 17.7944C11.9361 17.7934 11.9474 17.7936 11.9547 17.7941C11.9624 17.7947 11.9608 17.7953 11.9506 17.7926L12.4534 15.8569C12.0189 15.744 11.5244 15.7873 11.1298 15.9466L11.8784 17.8012ZM11.9487 17.7922C12.5682 17.9543 13.0957 18.2077 13.5249 18.59L14.8551 17.0965C14.135 16.4551 13.3 16.0785 12.4553 15.8574L11.9487 17.7922ZM13.5236 18.5888C13.9973 19.0123 14.2239 19.4901 14.2312 20.0892L16.2311 20.0649C16.2164 18.8622 15.7154 17.8655 14.8565 17.0977L13.5236 18.5888ZM9.98902 9.60775C8.88849 9.63535 7.89987 10.0305 7.18444 10.7527C6.46743 11.4766 6.08841 12.4653 6.09543 13.5574L8.09539 13.5445C8.09145 12.9322 8.29744 12.4711 8.60535 12.1602C8.91483 11.8478 9.39103 11.6234 10.0392 11.6071L9.98902 9.60775ZM6.09544 13.5579C6.11198 15.9546 8.02972 17.4339 10.0301 17.4177L10.0139 15.4178C8.98247 15.4261 8.10339 14.7036 8.09539 13.5441L6.09544 13.5579ZM10.0299 17.4177C12.1025 17.4014 13.8169 15.8812 13.9255 13.6518L11.9278 13.5545C11.8724 14.6927 11.0583 15.4095 10.0141 15.4178L10.0299 17.4177ZM13.9255 13.6515C14.0353 11.3806 12.1983 9.60918 10.0149 9.60743L10.0133 11.6074C11.122 11.6083 11.9793 12.4905 11.9278 13.5548L13.9255 13.6515ZM9.95989 14.7065C9.66998 14.6932 9.35896 14.5498 9.1238 14.3128C8.88529 14.0724 8.80504 13.8217 8.81586 13.6504L6.81984 13.5243C6.76491 14.3938 7.16292 15.1761 7.70406 15.7215C8.24854 16.2702 9.01855 16.6655 9.8684 16.7044L9.95989 14.7065ZM8.81589 13.65C8.85057 13.0972 9.02365 12.7903 9.19816 12.6233C9.37062 12.4582 9.64916 12.3291 10.0952 12.3324L10.1101 10.3325C9.25373 10.3261 8.43634 10.5839 7.81523 11.1784C7.19619 11.771 6.87806 12.5964 6.81981 13.5247L8.81589 13.65ZM10.0968 12.3324C10.6935 12.3359 11.2065 12.8633 11.178 13.5207L13.1761 13.6075C13.251 11.8824 11.9036 10.343 10.1085 10.3325L10.0968 12.3324ZM11.1779 13.5216C11.1466 14.2569 10.591 14.7356 9.9603 14.7065L9.86799 16.7044C11.6676 16.7875 13.1005 15.3846 13.1761 13.6066L11.1779 13.5216ZM14.7537 8.99558C14.5511 9.02586 14.3409 9.05736 14.1173 9.09204L14.424 11.0684C14.6415 11.0347 14.8468 11.0039 15.0493 10.9736L14.7537 8.99558ZM15.2341 9.81211C14.8766 8.52761 14.2682 7.42015 13.3191 6.64376C12.3583 5.85782 11.1449 5.49031 9.73584 5.51978L9.77766 7.51934C10.8015 7.49793 11.5249 7.76006 12.0527 8.19181C12.5922 8.63312 13.0243 9.33142 13.3073 10.3483L15.2341 9.81211ZM9.73598 5.51978C8.54899 5.54444 7.50464 5.94291 6.65061 6.70857C5.81451 7.45814 5.21561 8.50938 4.79896 9.76195L6.69672 10.3932C7.04327 9.35141 7.48835 8.64359 7.98567 8.19773C8.46506 7.76795 9.04357 7.5346 9.77752 7.51935L9.73598 5.51978ZM5.88092 9.08648C5.65665 9.05637 5.50141 9.0336 5.23474 8.99756L4.96686 10.9795C5.1675 11.0067 5.43397 11.0444 5.61476 11.0687L5.88092 9.08648ZM6.09129 10.1261C6.35858 8.20209 8.09359 6.74687 10.1336 6.78558L10.1716 4.78594C7.17296 4.72904 4.52425 6.87132 4.11031 9.85095L6.09129 10.1261ZM10.1334 6.78558C12.0211 6.82188 13.747 8.3889 13.9059 10.0783L15.8971 9.89094C15.6343 7.09768 12.9825 4.84 10.1718 4.78595L10.1334 6.78558ZM5.96593 14.8609C5.80109 15.0641 5.66722 15.2293 5.51992 15.4092L7.06734 16.6763C7.21814 16.4921 7.35518 16.323 7.51912 16.1209L5.96593 14.8609ZM6.79397 15.1769C6.6877 15.1155 6.53906 15.0268 6.4239 14.9616L5.43829 16.7019C5.55547 16.7682 5.63391 16.8164 5.79329 16.9085L6.79397 15.1769ZM6.42203 14.9605C5.93158 14.6842 5.22073 14.3886 4.33204 14.7385L5.06475 16.5995C5.10341 16.5843 5.12526 16.5811 5.13416 16.5802C5.14267 16.5794 5.15192 16.5794 5.1669 16.5821C5.20564 16.5892 5.28165 16.6136 5.44017 16.7029L6.42203 14.9605ZM4.3349 14.7374C4.02908 14.8568 3.64571 14.854 3.15537 14.7143L2.60731 16.6378C3.32688 16.8428 4.19638 16.9383 5.06189 16.6006L4.3349 14.7374ZM3.15626 14.7146C2.3299 14.4783 1.49934 14.6994 0.886402 15.1317C0.272657 15.5645 -0.214521 16.2732 -0.273949 17.1335L1.7213 17.2713C1.73289 17.1036 1.83598 16.9093 2.03903 16.7661C2.24289 16.6224 2.45565 16.5944 2.60642 16.6375L3.15626 14.7146ZM-0.274114 17.1359C-0.284457 17.2912 -0.279504 17.4451 -0.277831 17.53C-0.275786 17.634 -0.276806 17.6797 -0.28027 17.712L1.70833 17.9253C1.72678 17.7532 1.72379 17.5928 1.72178 17.4907C1.7194 17.3696 1.71822 17.3176 1.72146 17.2689L-0.274114 17.1359ZM-0.2805 17.7142C-0.311406 18.0085 -0.273107 18.3573 -0.05908 18.6799C0.140825 18.9813 0.417281 19.1412 0.615831 19.2309L1.4391 17.4082C1.4075 17.3939 1.51365 17.4328 1.60758 17.5744C1.71563 17.7373 1.71229 17.8876 1.70856 17.9231L-0.2805 17.7142ZM0.617838 19.2318C1.54175 19.6467 2.49093 19.805 3.41458 19.8445L3.50014 17.8464C2.74395 17.814 2.06239 17.6881 1.43709 17.4073L0.617838 19.2318ZM3.41493 19.8446C3.48128 19.8474 3.49741 19.8527 3.68266 19.8689L3.85631 17.8764C3.78994 17.8706 3.61931 17.8514 3.4998 17.8464L3.41493 19.8446ZM2.76948 18.8726V19.5665H4.76948V18.8726H2.76948ZM3.78887 18.5667C2.58707 18.5434 1.60239 18.3787 0.762208 17.8253L-0.338021 19.4954C0.975078 20.3604 2.41811 20.5405 3.7501 20.5663L3.78887 18.5667ZM0.764597 17.8268C0.844306 17.8797 0.89281 17.9334 0.917332 17.9639C0.943554 17.9965 0.959478 18.0239 0.969161 18.043C0.979093 18.0626 0.987885 18.0841 0.995266 18.1094C1.00215 18.1331 1.01229 18.1754 1.0153 18.2348L-0.98214 18.3359C-0.970253 18.5706 -0.897683 18.7837 -0.814463 18.9478C-0.735534 19.1034 -0.58928 19.3289 -0.34041 19.4939L0.764597 17.8268ZM1.01531 18.2351C0.995682 17.8451 0.991564 17.4849 1.02317 17.148L-0.968091 16.9612C-1.01276 17.4375 -1.00373 17.9071 -0.982156 18.3356L1.01531 18.2351ZM1.02302 17.1495C1.04677 16.9004 1.21579 16.5551 1.54525 16.2502C1.87501 15.945 2.23268 15.8033 2.47965 15.7982L2.43785 13.7986C1.57267 13.8167 0.768002 14.2445 0.186821 14.7823C-0.394659 15.3205 -0.885173 16.0916 -0.967946 16.9597L1.02302 17.1495ZM2.469 15.7983C2.4272 15.7987 2.39674 15.7945 2.38112 15.7917C2.36554 15.7889 2.35886 15.7866 2.36371 15.788C2.36852 15.7895 2.37916 15.793 2.39902 15.8005C2.40869 15.8042 2.41953 15.8084 2.43245 15.8135C2.44591 15.8188 2.45889 15.8241 2.47558 15.8307L3.21872 13.9739C3.15251 13.9474 2.81565 13.7947 2.44851 13.7984L2.469 15.7983ZM2.47419 15.8302C3.15338 16.1032 4.05173 16.2807 4.94058 15.8775L4.11428 14.0561C3.92999 14.1397 3.65175 14.148 3.2201 13.9745L2.47419 15.8302ZM4.93913 15.8781C5.04862 15.8287 5.1207 15.8257 5.19411 15.8363C5.2928 15.8506 5.42559 15.8953 5.64668 16.0034L6.52501 14.2066C5.95162 13.9263 5.1139 13.6045 4.11573 14.0555L4.93913 15.8781ZM5.64569 16.0029C5.81948 16.0881 5.91357 16.1625 6.23343 16.3517L7.25162 14.6302C7.09541 14.5378 6.78707 14.335 6.52599 14.207L5.64569 16.0029ZM18.9809 18.3326C18.9858 18.1649 19.0391 18.0486 19.0646 18.0004C19.0926 17.9475 19.1178 17.9184 19.1243 17.911C19.1345 17.8995 19.1361 17.8985 19.1477 17.8915L20.1811 19.6038C20.3308 19.5135 20.4885 19.3872 20.6212 19.2374C20.7204 19.1255 20.9675 18.8237 20.9801 18.3908L18.9809 18.3326ZM19.1449 17.8932C18.3331 18.3868 17.3923 18.5408 16.2159 18.5722L16.2691 20.5714C17.5607 20.537 18.924 20.3682 20.184 19.6021L19.1449 17.8932ZM17.2425 19.5718V18.8889H15.2425V19.5718H17.2425ZM16.3518 19.8829C16.7828 19.8355 17.2653 19.7916 17.7244 19.7294L17.4557 17.7475C17.0284 17.8054 16.6193 17.8414 16.1332 17.8949L16.3518 19.8829ZM17.727 19.729C17.9432 19.6991 18.3143 19.6491 18.6676 19.4936L17.8618 17.6631C17.7987 17.6909 17.6937 17.7146 17.4531 17.7479L17.727 19.729ZM18.6674 19.4937C18.7255 19.4681 18.7977 19.4407 18.9096 19.3983C19.009 19.3606 19.1406 19.3105 19.2674 19.2535C19.3885 19.199 19.5558 19.1163 19.7119 18.9972C19.8558 18.8874 20.1125 18.6547 20.205 18.2667L18.2594 17.8031C18.2917 17.6677 18.3516 17.5695 18.3984 17.5092C18.4437 17.4509 18.484 17.4184 18.4987 17.4072C18.5224 17.3891 18.5169 17.3981 18.4471 17.4295C18.383 17.4583 18.3056 17.4883 18.2 17.5284C18.107 17.5637 17.9784 17.6118 17.862 17.663L18.6674 19.4937ZM20.2048 18.2674C20.3532 17.6467 20.5485 16.3928 19.5303 15.5164L18.2256 17.0322C18.2768 17.0763 18.3067 17.124 18.32 17.2323C18.3367 17.3673 18.3187 17.5553 18.2596 17.8024L20.2048 18.2674ZM19.5289 15.5152C19.073 15.1243 18.5032 14.8601 18.1555 14.6807L17.2386 16.4582C17.707 16.6998 17.9965 16.8357 18.2271 17.0335L19.5289 15.5152ZM18.1542 14.6801C17.788 14.4919 17.4305 14.558 17.3229 14.579C17.1745 14.608 17.0357 14.6573 16.9878 14.6737L17.6347 16.5661C17.6681 16.5547 17.6862 16.5486 17.7024 16.5436C17.7183 16.5388 17.7178 16.5397 17.7061 16.5419C17.697 16.5437 17.6528 16.5522 17.5859 16.5503C17.5209 16.5485 17.3896 16.5358 17.2398 16.4588L18.1542 14.6801ZM16.9939 14.6716C16.4581 14.8509 16.0366 14.8682 15.6907 14.7385L14.9882 16.611C15.9258 16.9628 16.8563 16.8267 17.6286 16.5682L16.9939 14.6716ZM15.69 14.7382C14.78 14.3975 14.058 14.6872 13.5312 14.9937L14.5368 16.7225C14.7002 16.6274 14.7857 16.5983 14.8349 16.5891C14.8634 16.5838 14.9027 16.579 14.9889 16.6113L15.69 14.7382ZM13.5312 14.9937C13.4452 15.0437 13.3004 15.1322 13.2138 15.1835L14.2325 16.9046C14.3949 16.8085 14.4342 16.7821 14.5368 16.7225L13.5312 14.9937ZM14.4906 15.4029C14.3495 15.234 14.2106 15.068 14.0266 14.8506L12.5001 16.1427C12.6799 16.3551 12.8154 16.5172 12.9558 16.6852L14.4906 15.4029ZM13.7437 16.3737C13.9361 16.2683 14.1446 16.1378 14.277 16.0591C14.4312 15.9673 14.5406 15.909 14.6352 15.8712C14.7755 15.8152 14.8606 15.8065 15.0141 15.8719L15.798 14.0319C15.0743 13.7236 14.4329 13.7984 13.8935 14.0138C13.6483 14.1117 13.4295 14.2361 13.2544 14.3402C13.0574 14.4574 12.9353 14.5361 12.783 14.6196L13.7437 16.3737ZM15.0146 15.8721C15.8921 16.2454 16.7575 16.1019 17.4425 15.8777L16.8205 13.9769C16.3421 14.1335 16.0335 14.1321 15.7976 14.0317L15.0146 15.8721ZM17.4429 15.8776C17.4746 15.8672 17.5236 15.8574 17.5766 15.8555C17.6317 15.8535 17.6569 15.8611 17.6509 15.8593L18.2429 13.9489C17.761 13.7996 17.2282 13.8433 16.8201 13.977L17.4429 15.8776ZM17.648 15.8584C18.4745 16.1173 18.8424 16.4435 18.9456 16.9653L20.9076 16.5772C20.59 14.9717 19.3236 14.2874 18.2458 13.9498L17.648 15.8584ZM18.9458 16.9666C19.0205 17.3414 19.0033 17.7567 18.9813 18.3228L20.9797 18.4005C20.9989 17.9069 21.0378 17.231 20.9073 16.5759L18.9458 16.9666ZM16.2782 9.45148C14.4708 9.41622 13.0615 10.7634 13.0437 12.5744L15.0436 12.5941C15.0503 11.9103 15.5286 11.4372 16.2392 11.4511L16.2782 9.45148ZM13.0437 12.5751C13.0276 14.3227 14.4364 15.7566 16.1836 15.7707L16.1997 13.7708C15.5586 13.7656 15.0377 13.2363 15.0436 12.5934L13.0437 12.5751ZM16.1845 15.7707C17.8856 15.7828 19.3572 14.3928 19.3795 12.6797L17.3796 12.6537C17.3721 13.232 16.8351 13.7753 16.1988 13.7708L16.1845 15.7707ZM19.3795 12.6792C19.4011 10.945 18.0215 9.48381 16.2773 9.45146L16.2402 11.4511C16.8605 11.4626 17.3878 11.9954 17.3796 12.6543L19.3795 12.6792ZM16.2121 13.0546C16.0347 13.0575 15.7863 12.8449 15.7821 12.606L13.7824 12.6414C13.8054 13.9385 14.9194 15.076 16.2448 15.0544L16.2121 13.0546ZM15.7821 12.6076C15.7787 12.3968 16.0054 12.1709 16.204 12.1697L16.1924 10.1698C14.8725 10.1774 13.7612 11.3252 13.7824 12.6398L15.7821 12.6076ZM16.2034 12.1697C16.4104 12.1686 16.6427 12.3986 16.6444 12.6035L18.6444 12.5861C18.633 11.2769 17.4993 10.1629 16.193 10.1697L16.2034 12.1697ZM16.6444 12.6042C16.6451 12.6699 16.6106 12.7879 16.499 12.9028C16.3872 13.018 16.2725 13.0536 16.2119 13.0546L16.2451 15.0544C16.9244 15.0431 17.5212 14.7212 17.9341 14.2958C18.3473 13.8702 18.6508 13.2644 18.6444 12.5854L16.6444 12.6042ZM3.83063 9.45C2.10085 9.436 0.646391 10.8215 0.622435 12.5622L2.62225 12.5897C2.63073 11.9733 3.16034 11.4446 3.81443 11.4499L3.83063 9.45ZM0.622454 12.5608C0.595865 14.3186 2.055 15.7652 3.80413 15.769L3.8085 13.769C3.14921 13.7676 2.61287 13.2096 2.62223 12.5911L0.622454 12.5608ZM3.80294 15.769C5.52582 15.7748 6.93231 14.3818 6.9586 12.6636L4.95884 12.633C4.94918 13.264 4.42946 13.7711 3.80968 13.769L3.80294 15.769ZM6.9586 12.6638C6.9864 10.8665 5.63021 9.46401 3.83031 9.45L3.81475 11.4499C4.49428 11.4552 4.96961 11.9362 4.95884 12.6328L6.9586 12.6638ZM3.81167 13.0545C3.60297 13.0568 3.35656 12.8097 3.35833 12.6038L1.3584 12.5866C1.34702 13.9142 2.50691 15.0688 3.83339 15.0544L3.81167 13.0545ZM3.35831 12.6057C3.36069 12.3793 3.54355 12.1668 3.84022 12.1688L3.85394 10.1689C2.48917 10.1595 1.3727 11.2234 1.35842 12.5847L3.35831 12.6057ZM3.84023 12.1688C3.82645 12.1687 3.85791 12.1678 3.92494 12.1961C3.98782 12.2227 4.055 12.264 4.11283 12.3156C4.2316 12.4214 4.24795 12.5045 4.2455 12.5521L6.24284 12.6551C6.28423 11.8525 5.89005 11.2203 5.44331 10.8223C5.01565 10.4413 4.42968 10.1728 3.85393 10.1689L3.84023 12.1688ZM4.24419 12.6104C4.2457 12.8302 4.02704 13.0518 3.80996 13.0546L3.8351 15.0544C5.1532 15.0378 6.25317 13.9156 6.24415 12.5967L4.24419 12.6104ZM12.3169 20.4477C12.2773 21.1862 12.256 21.8362 12.1917 22.4945L14.1823 22.6888C14.2522 21.9725 14.2773 21.24 14.314 20.5547L12.3169 20.4477ZM12.192 22.4922C12.2145 22.2664 12.314 22.1244 12.3443 22.0834C12.3847 22.0289 12.4193 21.9994 12.4324 21.9888C12.448 21.9761 12.4634 21.9658 12.4814 21.9561C12.4957 21.9485 12.5383 21.9266 12.6082 21.9095L13.0846 23.8519C13.3342 23.7907 13.5476 23.6596 13.6934 23.5411C13.7735 23.4761 13.8674 23.3874 13.9517 23.2735C14.026 23.1731 14.154 22.9717 14.182 22.6911L12.192 22.4922ZM12.6089 21.9093C10.8715 22.3341 9.13774 22.3361 7.4058 21.9074L6.92525 23.8488C8.97471 24.3561 11.0364 24.3527 13.0839 23.8521L12.6089 21.9093ZM7.41163 21.9088C7.51422 21.9349 7.57663 21.9735 7.59672 21.9866C7.62242 22.0034 7.63881 22.018 7.65037 22.0297C7.66112 22.0406 7.68267 22.064 7.70757 22.1053C7.72675 22.1371 7.78506 22.2397 7.80322 22.4002L5.81592 22.6252C5.862 23.0322 6.11007 23.3163 6.22741 23.4351C6.36288 23.5722 6.60146 23.7666 6.91942 23.8473L7.41163 21.9088ZM7.80429 22.4101C7.74092 21.7956 7.73098 21.1978 7.69485 20.4544L5.69721 20.5515C5.72946 21.2152 5.74407 21.9289 5.81484 22.6153L7.80429 22.4101ZM6.69603 21.503H7.40356V19.503H6.69603V21.503ZM6.40466 20.5498C6.42836 21.0558 6.46015 21.4677 6.46817 21.9119L8.46784 21.8758C8.4592 21.3971 8.4226 20.8861 8.40247 20.4562L6.40466 20.5498ZM6.46811 21.9084C6.47185 22.1641 6.52785 22.5493 6.83211 22.8722C7.11595 23.1735 7.47079 23.2608 7.66922 23.2967L8.02517 21.3287C7.95926 21.3167 8.12648 21.3295 8.2878 21.5007C8.37255 21.5907 8.42125 21.6883 8.44607 21.7676C8.45756 21.8043 8.46285 21.8334 8.46534 21.8517C8.46661 21.8609 8.46724 21.8679 8.46755 21.8724C8.46771 21.8747 8.4678 21.8764 8.46784 21.8775C8.46789 21.8786 8.4679 21.8792 8.4679 21.8792L6.46811 21.9084ZM7.66874 23.2966C9.24255 23.5821 10.816 23.5824 12.3918 23.2873L12.0236 21.3214C10.6912 21.571 9.36351 21.5714 8.02565 21.3287L7.66874 23.2966ZM12.3934 23.287C12.6227 23.2436 12.9886 23.1347 13.2581 22.7928C13.5168 22.4645 13.5425 22.0995 13.5455 21.9111L11.5458 21.8791C11.5449 21.9372 11.5316 21.7523 11.6873 21.5547C11.8538 21.3435 12.0526 21.316 12.022 21.3217L12.3934 23.287ZM13.5456 21.9066C13.5506 21.4712 13.5826 21.0576 13.6076 20.5508L11.61 20.4525C11.5885 20.8896 11.5513 21.3988 11.5457 21.8837L13.5456 21.9066ZM12.6094 21.5017L13.3161 21.5012L13.3148 19.5012L12.6082 19.5017L12.6094 21.5017Z" fill="#F6921E" mask="url(#path-1-inside-1_1074_3161)"/>
</svg>
