<svg width="20" height="20" viewBox="0 0 20 20" fill="none" xmlns="http://www.w3.org/2000/svg">
<path d="M14.0909 17.7273V16.0909C14.0909 15.2229 13.7461 14.3905 13.1323 13.7767C12.5186 13.163 11.6862 12.8182 10.8182 12.8182H4.27273C3.40475 12.8182 2.57232 13.163 1.95856 13.7767C1.3448 14.3905 1 15.2229 1 16.0909V17.7273M19 17.7273V16.0909C18.9995 15.3658 18.7581 14.6614 18.3138 14.0883C17.8696 13.5152 17.2476 13.1058 16.5455 12.9245M13.2727 3.10636C13.9767 3.28661 14.6007 3.69603 15.0462 4.27007C15.4918 4.84412 15.7337 5.55013 15.7337 6.27682C15.7337 7.0035 15.4918 7.70952 15.0462 8.28356C14.6007 8.85761 13.9767 9.26703 13.2727 9.44727M10.8182 6.27273C10.8182 8.0802 9.35293 9.54545 7.54545 9.54545C5.73798 9.54545 4.27273 8.0802 4.27273 6.27273C4.27273 4.46525 5.73798 3 7.54545 3C9.35293 3 10.8182 4.46525 10.8182 6.27273Z" stroke="#F6921E" stroke-linecap="round" stroke-linejoin="round"/>
</svg>
