<svg width="20" height="21" viewBox="0 0 20 21" fill="none" xmlns="http://www.w3.org/2000/svg">
<path d="M16.4286 10.1711C16.4286 14.4316 12.9748 17.8854 8.71429 17.8854M16.4286 10.1711C16.4286 5.91065 12.9748 2.45685 8.71429 2.45685M16.4286 10.1711H1M8.71429 17.8854C4.4538 17.8854 1 14.4316 1 10.1711M8.71429 17.8854C10.6438 15.773 11.7404 13.0316 11.8 10.1711C11.7404 7.3107 10.6438 4.56929 8.71429 2.45685M8.71429 17.8854C6.78473 15.773 5.68816 13.0316 5.62857 10.1711C5.68816 7.3107 6.78473 4.56929 8.71429 2.45685M1 10.1711C1 5.91065 4.4538 2.45685 8.71429 2.45685" stroke="#F6921E" stroke-linecap="round" stroke-linejoin="round"/>
<path d="M15.5714 17.8854C17.465 17.8854 19 16.3504 19 14.4568C19 12.5633 17.465 11.0283 15.5714 11.0283C13.6779 11.0283 12.1429 12.5633 12.1429 14.4568C12.1429 16.3504 13.6779 17.8854 15.5714 17.8854Z" fill="white"/>
<path d="M15.5714 12.3997V14.4568L16.9429 15.1426" fill="white"/>
<path d="M15.5714 12.3997V14.4568L16.9429 15.1426M19 14.4568C19 16.3504 17.465 17.8854 15.5714 17.8854C13.6779 17.8854 12.1429 16.3504 12.1429 14.4568C12.1429 12.5633 13.6779 11.0283 15.5714 11.0283C17.465 11.0283 19 12.5633 19 14.4568Z" stroke="#F6921E" stroke-width="0.5" stroke-linecap="round" stroke-linejoin="round"/>
</svg>
