<svg width="60" height="59" viewBox="0 0 60 59" fill="none" xmlns="http://www.w3.org/2000/svg">
<path d="M30.7841 23.6859C30.8849 23.3309 30.9955 22.9795 31.105 22.6274C31.2145 22.2754 31.3309 21.9268 31.4507 21.5794C31.5083 21.4065 31.5596 21.2267 31.6138 21.051C31.6675 20.8752 31.7369 20.7045 31.8212 20.5411C31.9057 20.3759 31.9997 20.2159 32.103 20.0617C32.208 19.9013 32.3282 19.7514 32.4619 19.614L32.5115 19.6342C32.5096 19.8259 32.4892 20.0169 32.4504 20.2046C32.415 20.3867 32.369 20.5666 32.3127 20.7433C32.2574 20.9188 32.1864 21.0888 32.1006 21.2515C32.0148 21.4146 31.9238 21.5759 31.8443 21.7413C31.6841 22.0728 31.5195 22.4019 31.3505 22.7288C31.1776 23.0555 31.0111 23.3828 30.8319 23.7083L30.7841 23.6859Z" fill="#171923"/>
<path d="M29.1386 23.7066C28.96 23.3828 28.7929 23.0555 28.62 22.7271C28.4472 22.3987 28.2864 22.0708 28.1268 21.7395C28.0467 21.5742 27.954 21.4128 27.8699 21.2498C27.7841 21.0871 27.7131 20.917 27.6578 20.7416C27.6015 20.5649 27.5555 20.385 27.5201 20.2029C27.4814 20.0152 27.4609 19.8241 27.4591 19.6325L27.5086 19.6123C27.6423 19.7497 27.7625 19.8996 27.8676 20.06C27.9708 20.2141 28.0649 20.3742 28.1493 20.5394C28.2336 20.7028 28.303 20.8734 28.3567 21.0493C28.4109 21.225 28.4599 21.4036 28.5198 21.5776C28.6404 21.9233 28.7556 22.2727 28.8655 22.6257C28.975 22.9777 29.0856 23.3292 29.1864 23.6841L29.1386 23.7066Z" fill="#171923"/>
<path d="M31.1242 26.4624H28.8575C28.795 26.4624 28.7331 26.4752 28.6757 26.5001C28.6183 26.525 28.5666 26.5614 28.5239 26.607L28.1361 27.0219C28.057 27.1064 28.0129 27.2178 28.0128 27.3336V28.0365C28.013 28.1164 28.0341 28.1949 28.074 28.2642C28.1139 28.3334 28.1713 28.391 28.2404 28.4312L29.7609 29.3133C29.8303 29.3534 29.909 29.3744 29.9891 29.3744C30.0692 29.3744 30.1479 29.3534 30.2173 29.3133L31.7539 28.4306C31.8236 28.3904 31.8815 28.3326 31.9219 28.2631C31.9624 28.1936 31.9839 28.1146 31.9844 28.0342V27.337C31.9836 27.2194 31.9374 27.1067 31.8553 27.0224L31.452 26.6041C31.4097 26.5597 31.3588 26.5243 31.3025 26.5C31.2462 26.4756 31.1855 26.4628 31.1242 26.4624Z" fill="#F29222"/>
<path d="M29.9983 26.1893C30.8979 26.1893 31.6272 25.4601 31.6272 24.5605C31.6272 23.6609 30.8979 22.9316 29.9983 22.9316C29.0988 22.9316 28.3695 23.6609 28.3695 24.5605C28.3695 25.4601 29.0988 26.1893 29.9983 26.1893Z" fill="#F29222"/>
<path d="M28.9421 27.5485C28.7766 27.7406 28.6245 27.9344 28.4858 28.1299C28.1702 28.5674 27.8964 29.0336 27.6682 29.5225C28.3095 30.0947 29.1388 30.4109 29.9983 30.4109C30.8577 30.4109 31.6871 30.0947 32.3283 29.5225C32.0997 29.0339 31.826 28.5676 31.5107 28.1299C31.3713 27.9378 31.2192 27.744 31.0544 27.5485C30.367 27.3319 29.6296 27.3319 28.9421 27.5485Z" fill="#F29222"/>
<path d="M30 31.2752C29.0341 31.2762 28.0954 30.9557 27.3317 30.3643C27.0919 31.0753 26.9524 31.8163 26.9175 32.5658C27.2185 33.1203 27.6636 33.5833 28.2058 33.906C28.7481 34.2286 29.3673 34.3989 29.9983 34.3989C30.6292 34.3989 31.2485 34.2286 31.7907 33.906C32.333 33.5833 32.778 33.1203 33.0791 32.5658C33.0437 31.8163 32.9043 31.0754 32.6648 30.3643C31.9022 30.9551 30.9647 31.2756 30 31.2752Z" fill="#171923"/>
<path d="M31.7354 37.4621C31.7544 37.4333 31.7728 37.4045 31.793 37.3757C31.88 37.242 31.9601 37.1078 32.0356 36.9724C32.111 36.837 32.1819 36.7045 32.2493 36.5691C32.3167 36.4337 32.3766 36.3011 32.4354 36.1657C32.7255 35.4911 32.9217 34.7798 33.0185 34.0518C32.206 34.8308 31.1239 35.2658 29.9982 35.2658C28.8725 35.2658 27.7904 34.8308 26.9779 34.0518C27.0745 34.7819 27.2713 35.4952 27.5627 36.1715C27.6203 36.3057 27.6826 36.4394 27.7488 36.5748C27.8151 36.7102 27.8865 36.8427 27.962 36.9781C28.0375 37.1135 28.1182 37.2461 28.2052 37.3815C28.223 37.4103 28.242 37.4391 28.2628 37.4679C28.7919 37.7703 29.3908 37.9294 30.0002 37.9294C30.6097 37.9294 31.2086 37.7703 31.7377 37.4679L31.7354 37.4621Z" fill="#F29222"/>
<path d="M29.2712 38.7268C29.3536 38.8127 29.4394 38.8997 29.5299 38.9838C29.6792 39.126 29.8355 39.2606 29.9983 39.3871C30.1609 39.2606 30.3171 39.126 30.4662 38.9838C30.5572 38.8985 30.6425 38.8109 30.7254 38.7268C30.2441 38.8082 29.7525 38.8082 29.2712 38.7268Z" fill="#171923"/>
<path d="M32.527 28.1172H45.987L47.8163 30.6639L46.7055 31.0096C46.2662 31.1459 45.7986 31.1636 45.3503 31.0609L32.527 28.1172Z" fill="#F29222"/>
<path d="M32.527 28.2324L45.0956 31.1317C45.1803 31.1513 45.2583 31.1927 45.3219 31.2519C45.3855 31.3111 45.4324 31.386 45.4579 31.4691C45.4834 31.5521 45.4866 31.6404 45.4672 31.7251C45.4478 31.8098 45.4065 31.8879 45.3474 31.9516L43.4109 34.042L32.527 28.2324Z" fill="#171923"/>
<path d="M27.4729 28.1172H14.013L12.1836 30.6639L13.2945 31.0096C13.7337 31.1459 14.2013 31.1636 14.6496 31.0609L27.4729 28.1172Z" fill="#F29222"/>
<path d="M27.4729 28.2324L14.9043 31.1317C14.8197 31.1513 14.7416 31.1927 14.6781 31.2519C14.6145 31.3111 14.5676 31.386 14.5421 31.4691C14.5166 31.5521 14.5133 31.6404 14.5327 31.7251C14.5521 31.8098 14.5934 31.8879 14.6525 31.9516L16.5891 34.042L27.4729 28.2324Z" fill="#171923"/>
<path d="M30 53.69C16.6616 53.69 5.81002 42.8384 5.81002 29.5C5.81002 16.1616 16.6616 5.31003 30 5.31003C43.3384 5.31003 54.19 16.1616 54.19 29.5C54.19 42.8384 43.3384 53.69 30 53.69ZM30 8.20299C18.2571 8.20299 8.70298 17.7571 8.70298 29.5C8.70298 41.243 18.2571 50.7971 30 50.7971C41.743 50.7971 51.2971 41.243 51.2971 29.5C51.2971 17.7571 41.743 8.20299 30 8.20299Z" fill="#F29222"/>
<path d="M30.0001 56.5109C15.106 56.5109 2.98912 44.394 2.98912 29.5C2.98912 14.6059 15.106 2.48904 30.0001 2.48904C44.8941 2.48904 57.011 14.6059 57.011 29.5C57.011 44.394 44.8941 56.5109 30.0001 56.5109ZM30.0001 5.71964C16.8875 5.71964 6.21972 16.3875 6.21972 29.5C6.21972 42.6125 16.8875 53.2803 30.0001 53.2803C43.1126 53.2803 53.7804 42.6125 53.7804 29.5C53.7804 16.3875 43.1126 5.71964 30.0001 5.71964Z" fill="#F29222"/>
<path d="M30 59C13.7335 59 0.5 45.7665 0.5 29.5C0.5 13.2335 13.7335 0 30 0C46.2665 0 59.5 13.2335 59.5 29.5C59.5 45.7665 46.2665 59 30 59ZM30 3.52848C15.6792 3.52848 4.02848 15.1792 4.02848 29.5C4.02848 43.8208 15.6792 55.4715 30 55.4715C44.3208 55.4715 55.9715 43.8208 55.9715 29.5C55.9715 15.1792 44.3208 3.52848 30 3.52848Z" fill="#F29222"/>
<path d="M30.0001 12.583C30.7991 12.583 31.4468 11.9353 31.4468 11.1363C31.4468 10.3372 30.7991 9.68948 30.0001 9.68948C29.201 9.68948 28.5533 10.3372 28.5533 11.1363C28.5533 11.9353 29.201 12.583 30.0001 12.583Z" fill="#171923"/>
<path d="M38.547 14.512C39.346 14.512 39.9938 13.8643 39.9938 13.0653C39.9938 12.2662 39.346 11.6185 38.547 11.6185C37.748 11.6185 37.1002 12.2662 37.1002 13.0653C37.1002 13.8643 37.748 14.512 38.547 14.512Z" fill="#F29222"/>
<path d="M45.2974 20.7802C46.0965 20.7802 46.7442 20.1325 46.7442 19.3335C46.7442 18.5344 46.0965 17.8867 45.2974 17.8867C44.4984 17.8867 43.8507 18.5344 43.8507 19.3335C43.8507 20.1325 44.4984 20.7802 45.2974 20.7802Z" fill="#171923"/>
<path d="M29.8393 49.2299C30.6383 49.2299 31.286 48.5822 31.286 47.7831C31.286 46.9841 30.6383 46.3364 29.8393 46.3364C29.0403 46.3364 28.3925 46.9841 28.3925 47.7831C28.3925 48.5822 29.0403 49.2299 29.8393 49.2299Z" fill="#171923"/>
<path d="M38.3862 47.3014C39.1852 47.3014 39.833 46.6537 39.833 45.8547C39.833 45.0556 39.1852 44.4079 38.3862 44.4079C37.5872 44.4079 36.9394 45.0556 36.9394 45.8547C36.9394 46.6537 37.5872 47.3014 38.3862 47.3014Z" fill="#F29222"/>
<path d="M45.1371 41.0327C45.9361 41.0327 46.5839 40.3849 46.5839 39.5859C46.5839 38.7869 45.9361 38.1391 45.1371 38.1391C44.3381 38.1391 43.6903 38.7869 43.6903 39.5859C43.6903 40.3849 44.3381 41.0327 45.1371 41.0327Z" fill="#171923"/>
</svg>
